STARTFONT 2.1
FONT -FontForge-Fontdiner Swanky-Book-R-Normal--18-180-72-72-P-114-ISO10646-1
SIZE 18 72 72
FONTBOUNDINGBOX 26 28 -5 -9
COMMENT "Generated by fontforge, http://fontforge.sourceforge.net"
COMMENT "Copyright (c) 2010 by Font Diner, Inc. All rights reserved."
STARTPROPERTIES 39
FOUNDRY "FontForge"
FAMILY_NAME "Fontdiner Swanky"
WEIGHT_NAME "Book"
SLANT "R"
SETWIDTH_NAME "Normal"
ADD_STYLE_NAME ""
PIXEL_SIZE 18
POINT_SIZE 180
RESOLUTION_X 72
RESOLUTION_Y 72
SPACING "P"
AVERAGE_WIDTH 114
CHARSET_REGISTRY "ISO10646"
CHARSET_ENCODING "1"
FONTNAME_REGISTRY ""
CHARSET_COLLECTIONS "ISO10646-1"
FONT_NAME "FontdinerSwanky-Regular"
FACE_NAME "Fontdiner Swanky Regular"
COPYRIGHT "Copyright (c) 2010 by Font Diner, Inc. All rights reserved."
FONT_VERSION "1.001"
FONT_ASCENT 14
FONT_DESCENT 4
UNDERLINE_POSITION -2
UNDERLINE_THICKNESS 1
X_HEIGHT 9
CAP_HEIGHT 10
RAW_ASCENT 799
RAW_DESCENT 200
NORM_SPACE 6
RELATIVE_WEIGHT 40
RELATIVE_SETWIDTH 50
SUPERSCRIPT_X 0
SUPERSCRIPT_Y 8
SUPERSCRIPT_SIZE 11
SUBSCRIPT_X 0
SUBSCRIPT_Y 2
SUBSCRIPT_SIZE 11
AVG_LOWERCASE_WIDTH 114
AVG_UPPERCASE_WIDTH 139
ENDPROPERTIES
CHARS 231
STARTCHAR space
ENCODING 32
SWIDTH 320 0
DWIDTH 6 0
BBX 1 1 0 0
BITMAP
00
ENDCHAR
STARTCHAR exclam
ENCODING 33
SWIDTH 305 0
DWIDTH 6 0
BBX 6 15 0 0
BITMAP
3C
38
38
38
38
38
70
70
70
70
70
60
60
F0
E0
ENDCHAR
STARTCHAR quotedbl
ENCODING 34
SWIDTH 369 0
DWIDTH 7 0
BBX 6 5 0 7
BITMAP
EC
EC
EC
EC
6C
ENDCHAR
STARTCHAR numbersign
ENCODING 35
SWIDTH 702 0
DWIDTH 13 0
BBX 12 12 0 0
BITMAP
18C0
18C0
7FF0
7FF0
98C0
18C0
19C0
FFF0
FFF0
1180
3180
2000
ENDCHAR
STARTCHAR dollar
ENCODING 36
SWIDTH 545 0
DWIDTH 10 0
BBX 10 15 0 -2
BITMAP
1C00
1C40
3C80
7F80
E180
E080
FC80
7F00
9F80
43C0
E1C0
FF80
9F00
8C00
0C00
ENDCHAR
STARTCHAR percent
ENCODING 37
SWIDTH 657 0
DWIDTH 12 0
BBX 12 15 0 -1
BITMAP
00C0
79C0
C9C0
CD80
7B80
3300
0700
0600
0600
0EE0
0DF0
1DB0
19B0
38E0
1000
ENDCHAR
STARTCHAR ampersand
ENCODING 38
SWIDTH 668 0
DWIDTH 12 0
BBX 14 15 1 -2
BITMAP
7E00
6600
E700
6600
7600
3D00
3C80
6EC0
CFC0
C7A4
E3B8
FFE0
7DC0
0100
0200
ENDCHAR
STARTCHAR quotesingle
ENCODING 39
SWIDTH 177 0
DWIDTH 3 0
BBX 3 5 0 7
BITMAP
E0
E0
E0
E0
60
ENDCHAR
STARTCHAR parenleft
ENCODING 40
SWIDTH 384 0
DWIDTH 7 0
BBX 6 18 1 -3
BITMAP
0C
18
30
60
E0
E0
E0
E0
E0
E0
E0
E0
E0
70
70
38
08
04
ENDCHAR
STARTCHAR parenright
ENCODING 41
SWIDTH 375 0
DWIDTH 7 0
BBX 6 18 0 -3
BITMAP
C0
60
30
18
18
1C
1C
1C
1C
1C
1C
1C
18
38
38
70
40
80
ENDCHAR
STARTCHAR asterisk
ENCODING 42
SWIDTH 640 0
DWIDTH 12 0
BBX 12 12 0 0
BITMAP
1200
3100
3BC0
1B80
8F10
FFE0
FFE0
CF00
1B80
3BC0
3380
1000
ENDCHAR
STARTCHAR plus
ENCODING 43
SWIDTH 607 0
DWIDTH 11 0
BBX 11 10 0 1
BITMAP
0E00
0E00
0E00
FE00
FFE0
FFE0
0E00
0E00
0E00
0E00
ENDCHAR
STARTCHAR comma
ENCODING 44
SWIDTH 226 0
DWIDTH 4 0
BBX 4 5 0 -4
BITMAP
F0
F0
70
20
40
ENDCHAR
STARTCHAR hyphen
ENCODING 45
SWIDTH 549 0
DWIDTH 10 0
BBX 8 3 1 5
BITMAP
FC
FF
FF
ENDCHAR
STARTCHAR period
ENCODING 46
SWIDTH 226 0
DWIDTH 4 0
BBX 4 4 0 -2
BITMAP
20
F0
F0
20
ENDCHAR
STARTCHAR slash
ENCODING 47
SWIDTH 600 0
DWIDTH 11 0
BBX 12 17 -1 -1
BITMAP
0040
0070
00F0
00E0
01E0
01C0
0380
0780
0700
0F00
0E00
1C00
3C00
3800
7800
7000
E000
ENDCHAR
STARTCHAR zero
ENCODING 48
SWIDTH 740 0
DWIDTH 13 0
BBX 13 11 0 0
BITMAP
1FC0
3CF0
7070
7038
E038
E038
F038
7070
7870
3FE0
0F80
ENDCHAR
STARTCHAR one
ENCODING 49
SWIDTH 503 0
DWIDTH 9 0
BBX 11 14 -1 -1
BITMAP
0700
FF00
0F00
0F00
0F00
0E00
0600
0600
0600
0600
0600
0600
1F80
7FE0
ENDCHAR
STARTCHAR two
ENCODING 50
SWIDTH 638 0
DWIDTH 12 0
BBX 11 15 0 -1
BITMAP
8000
4F00
7FC0
70E0
60E0
60E0
40E0
41C0
47A0
1E20
3860
7060
FFE0
FFC0
00C0
ENDCHAR
STARTCHAR three
ENCODING 51
SWIDTH 620 0
DWIDTH 11 0
BBX 11 16 0 -2
BITMAP
8000
8E00
7F80
73C0
60C0
40C0
41C0
0FC0
0FC0
41E0
41E0
61E0
F1C0
BF80
8E00
8000
ENDCHAR
STARTCHAR four
ENCODING 52
SWIDTH 606 0
DWIDTH 11 0
BBX 12 15 -1 -1
BITMAP
0040
0080
0180
0380
0380
0780
0F80
1F90
3BA0
73E0
FFE0
01A0
0190
0190
1FF0
ENDCHAR
STARTCHAR five
ENCODING 53
SWIDTH 610 0
DWIDTH 11 0
BBX 10 14 0 -1
BITMAP
07C0
FFC0
F840
E040
6040
7F80
77C0
41C0
01C0
41C0
61C0
7FC0
FF80
8600
ENDCHAR
STARTCHAR six
ENCODING 54
SWIDTH 619 0
DWIDTH 11 0
BBX 11 16 0 -1
BITMAP
0040
0040
04C0
1FC0
3FC0
70C0
7040
FF80
F9C0
F0E0
E0E0
E0E0
E0E0
70E0
79C0
3F80
ENDCHAR
STARTCHAR seven
ENCODING 55
SWIDTH 598 0
DWIDTH 11 0
BBX 12 14 0 -1
BITMAP
FF10
FFE0
61E0
61E0
41C0
41C0
0380
0380
0380
0300
0700
0600
1F00
7FE0
ENDCHAR
STARTCHAR eight
ENCODING 56
SWIDTH 642 0
DWIDTH 12 0
BBX 12 15 0 -2
BITMAP
0F00
3F80
71C0
70E0
70E0
70E0
39C0
3FC0
79E0
F0F0
E0F0
F0F0
71E0
3FC0
0E00
ENDCHAR
STARTCHAR nine
ENCODING 57
SWIDTH 610 0
DWIDTH 11 0
BBX 11 16 0 -3
BITMAP
1F00
7F80
71C0
E0C0
E0E0
E0E0
F1E0
7BE0
3FE0
45C0
41C0
7380
7F80
6E00
4000
4000
ENDCHAR
STARTCHAR colon
ENCODING 58
SWIDTH 223 0
DWIDTH 4 0
BBX 4 8 0 -2
BITMAP
E0
F0
60
00
40
F0
F0
40
ENDCHAR
STARTCHAR semicolon
ENCODING 59
SWIDTH 228 0
DWIDTH 4 0
BBX 4 10 0 -4
BITMAP
E0
F0
60
00
00
E0
F0
60
60
40
ENDCHAR
STARTCHAR less
ENCODING 60
SWIDTH 563 0
DWIDTH 10 0
BBX 11 12 0 0
BITMAP
0040
00C0
03E0
0FC0
3F00
FC00
7800
3C00
0E00
0300
01C0
0040
ENDCHAR
STARTCHAR equal
ENCODING 61
SWIDTH 531 0
DWIDTH 10 0
BBX 9 7 0 1
BITMAP
FF80
FF80
FC00
0080
FF80
FF80
0080
ENDCHAR
STARTCHAR greater
ENCODING 62
SWIDTH 576 0
DWIDTH 10 0
BBX 11 12 0 0
BITMAP
4000
E000
F800
FE00
3F00
0FE0
03C0
0700
0E00
3800
7000
4000
ENDCHAR
STARTCHAR question
ENCODING 63
SWIDTH 592 0
DWIDTH 11 0
BBX 11 17 0 -1
BITMAP
4000
4000
7F00
43C0
81C0
80E0
00E0
01C0
13C0
3F80
3800
3800
1000
0000
F000
F000
2000
ENDCHAR
STARTCHAR at
ENCODING 64
SWIDTH 792 0
DWIDTH 14 0
BBX 15 13 0 -1
BITMAP
0FE0
3C70
7118
67CC
EC6C
CC6E
C7EE
CC6E
ECCC
6FCC
70F8
3C70
0780
ENDCHAR
STARTCHAR A
ENCODING 65
SWIDTH 788 0
DWIDTH 14 0
BBX 21 16 -3 -4
BITMAP
0FE000
01F000
007000
00F800
00F800
01BC00
011C00
031E00
03FE00
060F00
040700
1C0700
FF0780
0083F8
0007C0
001C00
ENDCHAR
STARTCHAR B
ENCODING 66
SWIDTH 774 0
DWIDTH 14 0
BBX 16 14 -2 -2
BITMAP
FFF0
3FFC
0E0F
0E07
0E07
0E1E
0FFC
0FFC
0E1E
0E0E
0E0E
063E
1FF8
7E00
ENDCHAR
STARTCHAR C
ENCODING 67
SWIDTH 766 0
DWIDTH 14 0
BBX 14 15 0 -1
BITMAP
0004
0004
0FE8
3FF8
7818
7018
7008
F008
F000
F000
7008
7808
3C18
1FF8
07C4
ENDCHAR
STARTCHAR D
ENCODING 68
SWIDTH 833 0
DWIDTH 15 0
BBX 17 13 -2 -1
BITMAP
FFF800
0FFE00
078700
070780
070380
070380
070380
070380
070380
030700
031E00
0FFC00
300000
ENDCHAR
STARTCHAR E
ENCODING 69
SWIDTH 781 0
DWIDTH 14 0
BBX 15 13 -2 0
BITMAP
00FE
FFFE
0706
0712
0712
0722
0720
07E2
07E2
0722
0722
0706
7FFE
ENDCHAR
STARTCHAR F
ENCODING 70
SWIDTH 731 0
DWIDTH 13 0
BBX 14 14 -1 -1
BITMAP
00FC
FFFC
1E0C
0E2C
0E44
0E44
0EC4
0FC0
0FC0
0E40
0E40
0E40
1E00
FFE0
ENDCHAR
STARTCHAR G
ENCODING 71
SWIDTH 828 0
DWIDTH 15 0
BBX 17 15 0 -1
BITMAP
000400
000800
0FF800
3FF800
781800
701800
700800
F20880
F1FF00
F03800
701800
783800
3C3C00
1FEC00
078400
ENDCHAR
STARTCHAR H
ENCODING 72
SWIDTH 797 0
DWIDTH 14 0
BBX 18 15 -2 -2
BITMAP
00FFC0
807E00
7F9E00
0E1E00
0E1C00
0E1C00
0E0C00
0FFC00
0FFC00
0E0C00
0E0C00
0E0C00
0EFFC0
1F0000
FFE000
ENDCHAR
STARTCHAR I
ENCODING 73
SWIDTH 445 0
DWIDTH 8 0
BBX 12 14 -2 -2
BITMAP
FFF0
0700
0700
0700
0700
0700
0700
0700
0700
0700
0700
0700
0F80
7FF0
ENDCHAR
STARTCHAR J
ENCODING 74
SWIDTH 718 0
DWIDTH 13 0
BBX 17 15 -2 -2
BITMAP
001F80
1FF800
003800
003800
003800
003800
003800
003800
001C00
811C00
7E1800
183800
1C3800
0E7000
07E000
ENDCHAR
STARTCHAR K
ENCODING 75
SWIDTH 934 0
DWIDTH 17 0
BBX 21 15 -1 -2
BITMAP
FFE010
1E3FE0
0E0E00
0E1C00
0E7000
0FE000
0FF000
0E3000
0E3800
0E1C00
0E0E00
0E0F00
7FE780
801FE0
003018
ENDCHAR
STARTCHAR L
ENCODING 76
SWIDTH 712 0
DWIDTH 13 0
BBX 15 14 -2 0
BITMAP
FFF0
0700
0700
0700
0700
0700
0702
0702
0702
0706
0706
070E
0FFE
7FC0
ENDCHAR
STARTCHAR M
ENCODING 77
SWIDTH 1033 0
DWIDTH 19 0
BBX 21 13 -1 0
BITMAP
FE03F8
1F07C0
0F0780
0F8F80
0F8F80
0FDB80
0DDB80
0DF380
0CF380
0CE380
0C6380
0C4380
FFFFF8
ENDCHAR
STARTCHAR N
ENCODING 78
SWIDTH 840 0
DWIDTH 15 0
BBX 19 14 -2 -1
BITMAP
7F7FE0
1F8F00
07C600
07C600
05E200
06F200
067A00
067E00
063E00
061E00
060E00
1F8600
FFF200
000200
ENDCHAR
STARTCHAR O
ENCODING 79
SWIDTH 808 0
DWIDTH 15 0
BBX 14 11 0 0
BITMAP
0FE0
3FF0
7838
703C
F01C
F01C
F01C
703C
7838
3FF0
0FE0
ENDCHAR
STARTCHAR P
ENCODING 80
SWIDTH 746 0
DWIDTH 13 0
BBX 16 13 -2 -1
BITMAP
E000
1FFC
061E
0607
0606
073C
07F0
0700
0700
0700
0700
1FC0
7C30
ENDCHAR
STARTCHAR Q
ENCODING 81
SWIDTH 789 0
DWIDTH 14 0
BBX 15 17 1 -5
BITMAP
0F00
3FC0
78F0
E070
E078
E038
E038
E078
E070
70E0
3FC0
0F80
0380
01E0
01FE
03C0
1E00
ENDCHAR
STARTCHAR R
ENCODING 82
SWIDTH 826 0
DWIDTH 15 0
BBX 21 17 -1 -5
BITMAP
F80000
3FF800
0E1C00
0E0E00
0E0E00
0EF800
0FF000
0E7000
0E3800
0E1C00
0E1C00
3FCE00
C02FF8
0007C0
000E00
001800
002000
ENDCHAR
STARTCHAR S
ENCODING 83
SWIDTH 661 0
DWIDTH 12 0
BBX 12 15 0 -2
BITMAP
0010
1F20
7FE0
E0E0
E020
F820
7F80
3FE0
07E0
40F0
60F0
70E0
5FC0
4200
8000
ENDCHAR
STARTCHAR T
ENCODING 84
SWIDTH 754 0
DWIDTH 14 0
BBX 12 12 1 0
BITMAP
FFF0
FFF0
CE30
8E20
8E20
8E10
0E00
0E00
0E00
0E00
0E00
FFE0
ENDCHAR
STARTCHAR U
ENCODING 85
SWIDTH 725 0
DWIDTH 13 0
BBX 17 12 -2 0
BITMAP
E07F80
1F8C00
0E0C00
1E0C00
1E0C00
1E0C00
1E0C00
1E0C00
1E0C00
0E0C00
0F1800
07F000
ENDCHAR
STARTCHAR V
ENCODING 86
SWIDTH 786 0
DWIDTH 14 0
BBX 19 14 -3 -1
BITMAP
00E000
0F9C00
FF07E0
070300
078200
038600
038C00
01CC00
01D800
00F800
00F000
007000
006000
002000
ENDCHAR
STARTCHAR W
ENCODING 87
SWIDTH 1026 0
DWIDTH 18 0
BBX 24 14 -3 -2
BITMAP
01E380
FF887F
0F0C10
070C30
071E30
039E20
03BF60
03F740
01F7C0
01E3C0
00E380
00C180
004100
004100
ENDCHAR
STARTCHAR X
ENCODING 88
SWIDTH 860 0
DWIDTH 15 0
BBX 19 12 -2 -1
BITMAP
7FE040
0F1F80
078C00
03D800
01F000
00F000
01F000
03F800
063C00
1C1E00
FF9F80
007FE0
ENDCHAR
STARTCHAR Y
ENCODING 89
SWIDTH 848 0
DWIDTH 15 0
BBX 19 13 -2 -1
BITMAP
8F8000
7E1860
0F0F80
078400
03CC00
01D800
00F000
006000
006000
006000
006000
00F000
07FF00
ENDCHAR
STARTCHAR Z
ENCODING 90
SWIDTH 685 0
DWIDTH 12 0
BBX 13 11 0 0
BITMAP
FFF8
7FF0
61E0
43C0
4780
4790
0F10
1E10
3C30
7FF0
FFF0
ENDCHAR
STARTCHAR bracketleft
ENCODING 91
SWIDTH 380 0
DWIDTH 7 0
BBX 7 17 1 -2
BITMAP
FE
F8
E0
E0
E0
E0
E0
E0
E0
E0
E0
E0
E0
E0
E0
60
7E
ENDCHAR
STARTCHAR backslash
ENCODING 92
SWIDTH 680 0
DWIDTH 12 0
BBX 12 17 0 -1
BITMAP
2000
F000
7000
7800
3800
3C00
1E00
0E00
0F00
0700
0380
0380
01C0
01E0
00E0
0070
0060
ENDCHAR
STARTCHAR bracketright
ENCODING 93
SWIDTH 371 0
DWIDTH 7 0
BBX 7 17 -1 -2
BITMAP
FE
3E
0E
0E
0E
0E
0E
0E
0E
0E
0E
0E
0E
0E
0E
0E
FE
ENDCHAR
STARTCHAR asciicircum
ENCODING 94
SWIDTH 671 0
DWIDTH 12 0
BBX 12 11 0 5
BITMAP
0400
0600
0E00
0F00
1F80
1D80
3CC0
78E0
7060
F030
6000
ENDCHAR
STARTCHAR underscore
ENCODING 95
SWIDTH 840 0
DWIDTH 15 0
BBX 15 3 0 -2
BITMAP
FFFE
FFFE
FFFE
ENDCHAR
STARTCHAR grave
ENCODING 96
SWIDTH 707 0
DWIDTH 13 0
BBX 4 5 5 10
BITMAP
20
E0
60
30
20
ENDCHAR
STARTCHAR a
ENCODING 97
SWIDTH 572 0
DWIDTH 10 0
BBX 12 10 0 0
BITMAP
1F00
7380
7180
7180
0180
7F80
E180
E380
7F80
13F0
ENDCHAR
STARTCHAR b
ENCODING 98
SWIDTH 723 0
DWIDTH 13 0
BBX 16 17 -3 -3
BITMAP
0080
FF00
0F00
0700
0700
0700
0700
0700
0700
07FE
070F
0707
0707
070E
071E
0FF8
3C00
ENDCHAR
STARTCHAR c
ENCODING 99
SWIDTH 589 0
DWIDTH 11 0
BBX 9 10 1 -1
BITMAP
1E00
7F80
E380
E380
E100
E080
E080
F080
7F80
3E00
ENDCHAR
STARTCHAR d
ENCODING 100
SWIDTH 713 0
DWIDTH 13 0
BBX 14 17 1 -3
BITMAP
07F0
00F0
00E0
00E0
00E0
00E0
00E0
3FE0
7FE0
E0E0
E0C0
C0C0
E0C0
E0C0
7FC0
0EE0
00FC
ENDCHAR
STARTCHAR e
ENCODING 101
SWIDTH 593 0
DWIDTH 11 0
BBX 10 9 1 -1
BITMAP
3E00
7700
E380
C180
FFC0
C000
E080
7F00
3E00
ENDCHAR
STARTCHAR f
ENCODING 102
SWIDTH 507 0
DWIDTH 9 0
BBX 11 24 -1 -7
BITMAP
07C0
0E60
0C60
0CE0
0C40
0C00
0C00
0C00
7FC0
7FC0
0E00
0E00
0E00
0E00
0E00
0600
0600
0700
0700
4700
E700
E600
6E00
3C00
ENDCHAR
STARTCHAR g
ENCODING 103
SWIDTH 606 0
DWIDTH 11 0
BBX 12 20 0 -9
BITMAP
00E0
01F0
1F60
3380
71C0
60C0
E0C0
60C0
71C0
3B80
3F00
7800
7F80
7FE0
E0E0
E060
E070
E0E0
7BC0
1F80
ENDCHAR
STARTCHAR h
ENCODING 104
SWIDTH 678 0
DWIDTH 12 0
BBX 17 16 -3 -1
BITMAP
FF0000
0F0000
070000
070000
070000
070000
070000
070000
07F800
071C00
070E00
070E00
070E00
070C00
1F8C00
207F80
ENDCHAR
STARTCHAR i
ENCODING 105
SWIDTH 393 0
DWIDTH 7 0
BBX 9 14 -1 0
BITMAP
0E00
1E00
1E00
0000
C000
3E00
0E00
0E00
0E00
0E00
0C00
0C00
1E00
7F80
ENDCHAR
STARTCHAR j
ENCODING 106
SWIDTH 385 0
DWIDTH 7 0
BBX 7 19 -1 -6
BITMAP
18
3C
3C
10
04
FC
0E
0E
0E
0E
0E
0E
0E
06
06
C6
E6
CE
7C
ENDCHAR
STARTCHAR k
ENCODING 107
SWIDTH 749 0
DWIDTH 13 0
BBX 18 17 -2 -2
BITMAP
010000
FE0000
0E0000
0EFF80
0E3E00
0E3800
0E7000
0EC000
0FE000
0F6000
0E7000
0E3000
0E1800
0E1C00
3FCF00
401EC0
006000
ENDCHAR
STARTCHAR l
ENCODING 108
SWIDTH 369 0
DWIDTH 7 0
BBX 10 16 -2 -1
BITMAP
FE00
0E00
0E00
0E00
0E00
0E00
0E00
0E00
0E00
0E00
0E00
0E00
0E00
0600
0E00
3FC0
ENDCHAR
STARTCHAR m
ENCODING 109
SWIDTH 990 0
DWIDTH 18 0
BBX 21 9 -2 1
BITMAP
064000
FFF7C0
0F7FE0
0E18E0
0E18E0
0618E0
0618E0
3F19F8
01FE00
ENDCHAR
STARTCHAR n
ENCODING 110
SWIDTH 643 0
DWIDTH 12 0
BBX 15 9 -2 1
BITMAP
0640
FFF0
0F78
0E18
0E18
0618
0618
3F18
01FE
ENDCHAR
STARTCHAR o
ENCODING 111
SWIDTH 705 0
DWIDTH 13 0
BBX 13 9 0 0
BITMAP
0700
3FE0
7070
E070
E038
E030
7070
78E0
1FC0
ENDCHAR
STARTCHAR p
ENCODING 112
SWIDTH 723 0
DWIDTH 13 0
BBX 15 14 -2 -4
BITMAP
FE00
3EE0
0FF8
0E1C
0E0E
0E0E
0E0E
0E1C
0FF8
0E60
0600
0600
0600
7FE0
ENDCHAR
STARTCHAR q
ENCODING 113
SWIDTH 682 0
DWIDTH 12 0
BBX 15 14 0 -4
BITMAP
00FE
1FE0
79E0
E0E0
E0E0
E0E0
E0E0
79E0
3FE0
00E0
00C0
00C0
01E0
0FFC
ENDCHAR
STARTCHAR r
ENCODING 114
SWIDTH 595 0
DWIDTH 11 0
BBX 12 11 -1 0
BITMAP
0600
FFF0
1FF0
0E70
0E00
0E00
0E00
0E00
0E00
1F80
7F60
ENDCHAR
STARTCHAR s
ENCODING 115
SWIDTH 533 0
DWIDTH 10 0
BBX 10 12 0 -1
BITMAP
0880
7E80
6380
E180
7880
7F00
9F80
47C0
61C0
7F80
9F00
8000
ENDCHAR
STARTCHAR t
ENCODING 116
SWIDTH 422 0
DWIDTH 8 0
BBX 8 17 0 -1
BITMAP
08
18
18
38
FE
FF
30
30
30
70
70
71
71
71
7E
3E
08
ENDCHAR
STARTCHAR u
ENCODING 117
SWIDTH 614 0
DWIDTH 11 0
BBX 15 10 -2 -1
BITMAP
FDF8
1C78
1C38
1C30
1C30
1C30
1C30
0EF0
0FFE
0030
ENDCHAR
STARTCHAR v
ENCODING 118
SWIDTH 639 0
DWIDTH 12 0
BBX 16 12 -2 -2
BITMAP
0380
FD80
1C7F
0E30
0E30
0760
0760
03C0
03C0
0180
0080
0080
ENDCHAR
STARTCHAR w
ENCODING 119
SWIDTH 805 0
DWIDTH 15 0
BBX 19 10 -2 0
BITMAP
FFDFE0
3C4300
1C6200
0E6600
0EF600
07FC00
07BC00
033800
031800
011000
ENDCHAR
STARTCHAR x
ENCODING 120
SWIDTH 717 0
DWIDTH 13 0
BBX 17 11 -2 -1
BITMAP
07C000
FEFF80
0F3800
07F000
03E000
01C000
03E000
067000
7F3800
00BF80
00E000
ENDCHAR
STARTCHAR y
ENCODING 121
SWIDTH 655 0
DWIDTH 12 0
BBX 12 18 -1 -8
BITMAP
8000
73C0
3CF0
3C70
3870
3870
3870
3C70
1FF0
0F70
0070
0070
0070
3070
3860
30E0
39C0
0F80
ENDCHAR
STARTCHAR z
ENCODING 122
SWIDTH 549 0
DWIDTH 10 0
BBX 11 9 0 0
BITMAP
FFE0
4380
4700
4F00
4E40
1C80
3C80
7EC0
FFC0
ENDCHAR
STARTCHAR braceleft
ENCODING 123
SWIDTH 708 0
DWIDTH 13 0
BBX 10 17 1 -2
BITMAP
1FC0
1F00
0C00
0C00
0C00
0C00
0C00
0C00
FC00
3C00
0C00
0C00
0C00
0C00
0C00
0E00
0FC0
ENDCHAR
STARTCHAR bar
ENCODING 124
SWIDTH 304 0
DWIDTH 5 0
BBX 3 16 1 -1
BITMAP
E0
E0
E0
E0
E0
E0
E0
E0
E0
E0
E0
E0
E0
E0
E0
E0
ENDCHAR
STARTCHAR braceright
ENCODING 125
SWIDTH 517 0
DWIDTH 9 0
BBX 10 17 0 -2
BITMAP
FE00
3E00
0E00
0E00
0E00
0E00
0E00
0E00
0FC0
0F00
0E00
0E00
0E00
0E00
0C00
0C00
FC00
ENDCHAR
STARTCHAR asciitilde
ENCODING 126
SWIDTH 466 0
DWIDTH 8 0
BBX 8 4 0 4
BITMAP
01
FF
FF
8F
ENDCHAR
STARTCHAR uni00A0
ENCODING 160
SWIDTH 320 0
DWIDTH 6 0
BBX 1 1 0 0
BITMAP
00
ENDCHAR
STARTCHAR exclamdown
ENCODING 161
SWIDTH 305 0
DWIDTH 6 0
BBX 6 16 0 -6
BITMAP
18
3C
18
00
30
30
30
30
70
70
70
70
70
70
F0
10
ENDCHAR
STARTCHAR cent
ENCODING 162
SWIDTH 417 0
DWIDTH 8 0
BBX 8 15 0 -2
BITMAP
18
18
18
3C
66
C7
C0
C0
C1
E1
7E
3C
18
18
18
ENDCHAR
STARTCHAR sterling
ENCODING 163
SWIDTH 658 0
DWIDTH 12 0
BBX 12 14 0 -1
BITMAP
0010
0710
1FE0
38E0
3860
FE20
FFA0
1830
FF90
FF90
1810
18F0
3FF0
47F0
ENDCHAR
STARTCHAR currency
ENCODING 164
SWIDTH 358 0
DWIDTH 6 0
BBX 6 7 0 3
BITMAP
44
FC
7C
4C
78
FC
44
ENDCHAR
STARTCHAR yen
ENCODING 165
SWIDTH 796 0
DWIDTH 14 0
BBX 17 12 -2 0
BITMAP
0F0000
FC7F80
0E0C00
071000
03A000
01E000
07C000
07F000
07F000
00F000
01C000
0FFE00
ENDCHAR
STARTCHAR brokenbar
ENCODING 166
SWIDTH 304 0
DWIDTH 5 0
BBX 3 16 1 -1
BITMAP
E0
E0
E0
E0
E0
E0
00
00
00
80
E0
E0
E0
E0
E0
E0
ENDCHAR
STARTCHAR section
ENCODING 167
SWIDTH 646 0
DWIDTH 12 0
BBX 10 21 1 -5
BITMAP
3C40
7E80
C380
C180
E080
F880
7E00
7F80
EFC0
C3C0
C1C0
F1C0
FF80
7F00
1F80
87C0
81C0
E1C0
FF80
9F00
8000
ENDCHAR
STARTCHAR dieresis
ENCODING 168
SWIDTH 708 0
DWIDTH 13 0
BBX 5 2 4 15
BITMAP
D8
D8
ENDCHAR
STARTCHAR copyright
ENCODING 169
SWIDTH 700 0
DWIDTH 13 0
BBX 13 11 0 1
BITMAP
1F80
38E0
6730
CDB0
C998
D818
D898
CDB0
6730
30E0
1F80
ENDCHAR
STARTCHAR ordfeminine
ENCODING 170
SWIDTH 399 0
DWIDTH 7 0
BBX 8 7 0 7
BITMAP
7C
CC
CC
FC
CC
FC
0F
ENDCHAR
STARTCHAR guillemotleft
ENCODING 171
SWIDTH 424 0
DWIDTH 8 0
BBX 7 10 0 -1
BITMAP
12
32
36
6E
EC
EC
66
36
12
12
ENDCHAR
STARTCHAR logicalnot
ENCODING 172
SWIDTH 541 0
DWIDTH 10 0
BBX 11 9 0 1
BITMAP
8040
8040
FE80
FF80
FF80
8180
8080
0080
03E0
ENDCHAR
STARTCHAR sfthyphen
ENCODING 173
SWIDTH 530 0
DWIDTH 10 0
BBX 10 3 0 5
BITMAP
FE00
FFC0
FF80
ENDCHAR
STARTCHAR registered
ENCODING 174
SWIDTH 700 0
DWIDTH 13 0
BBX 13 11 0 1
BITMAP
1F80
3DE0
6070
DFF0
C6D8
C618
C618
C630
6FB0
30E0
1FC0
ENDCHAR
STARTCHAR macron
ENCODING 175
SWIDTH 705 0
DWIDTH 13 0
BBX 5 2 5 13
BITMAP
F8
F8
ENDCHAR
STARTCHAR degree
ENCODING 176
SWIDTH 364 0
DWIDTH 7 0
BBX 5 5 1 8
BITMAP
70
F0
98
F0
70
ENDCHAR
STARTCHAR plusminus
ENCODING 177
SWIDTH 607 0
DWIDTH 11 0
BBX 11 11 0 0
BITMAP
0E00
0E00
FFE0
FFC0
FFC0
0E00
0E00
0200
7FC0
7FC0
7FC0
ENDCHAR
STARTCHAR twosuperior
ENCODING 178
SWIDTH 440 0
DWIDTH 8 0
BBX 8 9 0 7
BITMAP
5C
7E
67
47
4F
5D
73
FE
FE
ENDCHAR
STARTCHAR threesuperior
ENCODING 179
SWIDTH 442 0
DWIDTH 8 0
BBX 8 11 0 5
BITMAP
80
7E
66
47
56
5E
47
47
7E
9C
80
ENDCHAR
STARTCHAR acute
ENCODING 180
SWIDTH 694 0
DWIDTH 13 0
BBX 4 5 5 13
BITMAP
40
70
60
E0
40
ENDCHAR
STARTCHAR mu
ENCODING 181
SWIDTH 1000 0
DWIDTH 18 0
BBX 14 14 0 -5
BITMAP
FFF8
3C70
1830
1830
1870
1870
1870
1EE0
1FFC
1860
1800
1800
1800
1800
ENDCHAR
STARTCHAR paragraph
ENCODING 182
SWIDTH 782 0
DWIDTH 14 0
BBX 15 13 0 -1
BITMAP
0FFE
7FF0
E760
C760
E660
7FE0
07E0
0660
0660
0660
07E0
0FFC
7800
ENDCHAR
STARTCHAR periodcentered
ENCODING 183
SWIDTH 226 0
DWIDTH 4 0
BBX 4 3 0 5
BITMAP
F0
F0
60
ENDCHAR
STARTCHAR cedilla
ENCODING 184
SWIDTH 780 0
DWIDTH 14 0
BBX 4 5 5 -3
BITMAP
60
E0
30
90
F0
ENDCHAR
STARTCHAR onesuperior
ENCODING 185
SWIDTH 390 0
DWIDTH 7 0
BBX 7 10 0 6
BITMAP
04
F8
18
18
18
18
18
18
1C
7E
ENDCHAR
STARTCHAR ordmasculine
ENCODING 186
SWIDTH 449 0
DWIDTH 8 0
BBX 8 6 0 8
BITMAP
3C
FF
C3
C3
C3
7E
ENDCHAR
STARTCHAR guillemotright
ENCODING 187
SWIDTH 415 0
DWIDTH 7 0
BBX 7 10 0 -1
BITMAP
88
C8
6C
66
36
76
6C
CC
C8
88
ENDCHAR
STARTCHAR onequarter
ENCODING 188
SWIDTH 918 0
DWIDTH 17 0
BBX 17 18 0 -2
BITMAP
040400
F80E00
180C00
181C00
183800
183000
187000
186200
1CE400
7FCC00
018C00
039D00
033D00
067F00
06FF00
0C0D00
1C1E00
187F80
ENDCHAR
STARTCHAR onehalf
ENCODING 189
SWIDTH 1007 0
DWIDTH 18 0
BBX 18 19 0 -3
BITMAP
040400
F80E00
180C00
181C00
183800
183000
187000
186000
1CE000
7FD700
019F80
0398C0
0310C0
0611C0
061740
0C0C40
1C18C0
183FC0
000040
ENDCHAR
STARTCHAR threequarters
ENCODING 190
SWIDTH 936 0
DWIDTH 17 0
BBX 17 18 0 -2
BITMAP
800400
7E0600
660E00
471C00
561800
5E3800
473000
477200
7EE200
9CC600
81CE00
019E80
033700
077F00
06FF00
0E0700
0C0E00
187F80
ENDCHAR
STARTCHAR questiondown
ENCODING 191
SWIDTH 568 0
DWIDTH 10 0
BBX 10 16 0 -6
BITMAP
03C0
03C0
0180
0200
0300
0700
3F00
7F00
E000
E000
E040
E040
70C0
3FC0
0080
0040
ENDCHAR
STARTCHAR Agrave
ENCODING 192
SWIDTH 788 0
DWIDTH 14 0
BBX 21 22 -3 -4
BITMAP
004000
00C000
00E000
006000
004000
000000
0FE000
01F000
007000
00F800
00F800
01BC00
011C00
031E00
03FE00
060F00
040700
1C0700
FF0780
0083F8
0007C0
001C00
ENDCHAR
STARTCHAR Aacute
ENCODING 193
SWIDTH 788 0
DWIDTH 14 0
BBX 21 22 -3 -4
BITMAP
002000
003000
007000
006000
002000
000000
0FE000
01F000
007000
00F800
00F800
01BC00
011C00
031E00
03FE00
060F00
040700
1C0700
FF0780
0083F8
0007C0
001C00
ENDCHAR
STARTCHAR Acircumflex
ENCODING 194
SWIDTH 788 0
DWIDTH 14 0
BBX 21 22 -3 -4
BITMAP
002000
006000
00F000
01D800
010800
000000
0FE000
01F000
007000
00F800
00F800
01BC00
011C00
031E00
03FE00
060F00
040700
1C0700
FF0780
0083F8
0007C0
001C00
ENDCHAR
STARTCHAR Atilde
ENCODING 195
SWIDTH 788 0
DWIDTH 14 0
BBX 21 21 -3 -4
BITMAP
00C800
00F800
00B800
000000
000000
0FE000
01F000
007000
00F800
00F800
01BC00
011C00
031E00
03FE00
060F00
040700
1C0700
FF0780
0083F8
0007C0
001C00
ENDCHAR
STARTCHAR Adieresis
ENCODING 196
SWIDTH 788 0
DWIDTH 14 0
BBX 21 20 -3 -4
BITMAP
009800
01D800
000000
000000
0FE000
01F000
007000
00F800
00F800
01BC00
011C00
031E00
03FE00
060F00
040700
1C0700
FF0780
0083F8
0007C0
001C00
ENDCHAR
STARTCHAR Aring
ENCODING 197
SWIDTH 788 0
DWIDTH 14 0
BBX 21 19 -3 -4
BITMAP
007000
00D000
007000
0FE000
01F000
007000
00F800
00F800
01BC00
011C00
031E00
03FE00
060F00
040700
1C0700
FF0780
0083F8
0007C0
001C00
ENDCHAR
STARTCHAR AE
ENCODING 198
SWIDTH 1019 0
DWIDTH 18 0
BBX 23 14 -5 -1
BITMAP
020FFE
01FFFE
007F06
003726
006722
006722
00C760
0087E2
01FFE4
03FF24
020724
060704
1E1FFC
FFE000
ENDCHAR
STARTCHAR Ccedilla
ENCODING 199
SWIDTH 766 0
DWIDTH 14 0
BBX 14 20 0 -6
BITMAP
0004
0004
0FE8
3FF8
7818
7018
7008
F008
F000
F000
7008
7808
3C18
1FF8
07C4
0200
0700
0180
0580
0700
ENDCHAR
STARTCHAR Egrave
ENCODING 200
SWIDTH 781 0
DWIDTH 14 0
BBX 15 18 -2 0
BITMAP
0080
01C0
00C0
00E0
0080
00FE
FFFE
0706
0712
0712
0722
0720
07E2
07E2
0722
0722
0706
7FFE
ENDCHAR
STARTCHAR Eacute
ENCODING 201
SWIDTH 781 0
DWIDTH 14 0
BBX 15 18 -2 0
BITMAP
0040
0070
0060
00C0
0040
00FE
FFFE
0706
0712
0712
0722
0720
07E2
07E2
0722
0722
0706
7FFE
ENDCHAR
STARTCHAR Ecircumflex
ENCODING 202
SWIDTH 781 0
DWIDTH 14 0
BBX 15 19 -2 0
BITMAP
0080
00C0
01E0
0370
0210
0000
00FE
FFFE
0706
0712
0712
0722
0720
07E2
07E2
0722
0722
0706
7FFE
ENDCHAR
STARTCHAR Edieresis
ENCODING 203
SWIDTH 781 0
DWIDTH 14 0
BBX 15 16 -2 0
BITMAP
0130
03B0
0000
00FE
FFFE
0706
0712
0712
0722
0720
07E2
07E2
0722
0722
0706
7FFE
ENDCHAR
STARTCHAR Igrave
ENCODING 204
SWIDTH 445 0
DWIDTH 8 0
BBX 12 20 -2 -2
BITMAP
0400
0E00
0600
0700
0400
C030
3FC0
0700
0700
0700
0700
0700
0700
0700
0700
0700
0700
0700
0F80
7FF0
ENDCHAR
STARTCHAR Iacute
ENCODING 205
SWIDTH 445 0
DWIDTH 8 0
BBX 12 20 -2 -2
BITMAP
0200
0380
0300
0700
0200
C030
3FC0
0700
0700
0700
0700
0700
0700
0700
0700
0700
0700
0700
0F80
7FF0
ENDCHAR
STARTCHAR Icircumflex
ENCODING 206
SWIDTH 445 0
DWIDTH 8 0
BBX 12 20 -2 -2
BITMAP
0200
0600
0F00
0D80
1080
C030
3FC0
0700
0700
0700
0700
0700
0700
0700
0700
0700
0700
0700
0F80
7FF0
ENDCHAR
STARTCHAR Idieresis
ENCODING 207
SWIDTH 445 0
DWIDTH 8 0
BBX 12 18 -2 -2
BITMAP
0D80
0D80
0000
C030
3FC0
0700
0700
0700
0700
0700
0700
0700
0700
0700
0700
0700
0F80
7FF0
ENDCHAR
STARTCHAR Eth
ENCODING 208
SWIDTH 1000 0
DWIDTH 18 0
BBX 17 13 0 -1
BITMAP
FFF800
0FFE00
078700
078380
078380
3FE380
3FE380
070380
030380
030700
030F00
0FFC00
300000
ENDCHAR
STARTCHAR Ntilde
ENCODING 209
SWIDTH 840 0
DWIDTH 15 0
BBX 19 19 -2 -1
BITMAP
01C800
01F000
017000
000000
000000
7F7FE0
1F8F00
07C600
07C600
05E200
06F200
067A00
067E00
063E00
061E00
060E00
1F8600
FFF200
000200
ENDCHAR
STARTCHAR Ograve
ENCODING 210
SWIDTH 808 0
DWIDTH 15 0
BBX 14 17 0 0
BITMAP
0100
0300
0380
0180
0100
0000
0FE0
3FF0
7838
703C
F01C
F01C
F01C
703C
7838
3FF0
0FE0
ENDCHAR
STARTCHAR Oacute
ENCODING 211
SWIDTH 808 0
DWIDTH 15 0
BBX 14 17 0 0
BITMAP
0100
01C0
0180
0380
0100
0000
0FE0
3FF0
7838
703C
F01C
F01C
F01C
703C
7838
3FF0
0FE0
ENDCHAR
STARTCHAR Ocircumflex
ENCODING 212
SWIDTH 808 0
DWIDTH 15 0
BBX 14 17 0 0
BITMAP
0100
0300
0780
06C0
0840
0000
0FE0
3FF0
7838
703C
F01C
F01C
F01C
703C
7838
3FF0
0FE0
ENDCHAR
STARTCHAR Otilde
ENCODING 213
SWIDTH 808 0
DWIDTH 15 0
BBX 14 16 0 0
BITMAP
0720
07C0
05C0
0000
0000
0FE0
3FF0
7838
703C
F01C
F01C
F01C
703C
7838
3FF0
0FE0
ENDCHAR
STARTCHAR Odieresis
ENCODING 214
SWIDTH 808 0
DWIDTH 15 0
BBX 14 15 0 0
BITMAP
06C0
06C0
0000
0000
0FE0
3FF0
7838
703C
F01C
F01C
F01C
703C
7838
3FF0
0FE0
ENDCHAR
STARTCHAR multiply
ENCODING 215
SWIDTH 556 0
DWIDTH 10 0
BBX 10 10 0 1
BITMAP
2100
7380
FFC0
3F80
1E00
1E00
3F00
F3C0
6180
4080
ENDCHAR
STARTCHAR Oslash
ENCODING 216
SWIDTH 808 0
DWIDTH 15 0
BBX 14 15 0 -2
BITMAP
0020
0078
0FF0
3FF0
78F8
71FC
F19C
F39C
F31C
773C
7E38
3FF0
1FE0
1800
3000
ENDCHAR
STARTCHAR Ugrave
ENCODING 217
SWIDTH 725 0
DWIDTH 13 0
BBX 17 17 -2 0
BITMAP
008000
01C000
01C000
00C000
008000
E07F80
1F8C00
0E0C00
1E0C00
1E0C00
1E0C00
1E0C00
1E0C00
1E0C00
0E0C00
0F1800
07F000
ENDCHAR
STARTCHAR Uacute
ENCODING 218
SWIDTH 725 0
DWIDTH 13 0
BBX 17 18 -2 0
BITMAP
008000
00E000
00C000
01C000
008000
000000
E07F80
1F8C00
0E0C00
1E0C00
1E0C00
1E0C00
1E0C00
1E0C00
1E0C00
0E0C00
0F1800
07F000
ENDCHAR
STARTCHAR Ucircumflex
ENCODING 219
SWIDTH 725 0
DWIDTH 13 0
BBX 17 18 -2 0
BITMAP
008000
00C000
01E000
037000
021000
000000
E07F80
1F8C00
0E0C00
1E0C00
1E0C00
1E0C00
1E0C00
1E0C00
1E0C00
0E0C00
0F1800
07F000
ENDCHAR
STARTCHAR Udieresis
ENCODING 220
SWIDTH 725 0
DWIDTH 13 0
BBX 17 15 -2 0
BITMAP
013000
03B000
000000
E07F80
1F8C00
0E0C00
1E0C00
1E0C00
1E0C00
1E0C00
1E0C00
1E0C00
0E0C00
0F1800
07F000
ENDCHAR
STARTCHAR Yacute
ENCODING 221
SWIDTH 848 0
DWIDTH 15 0
BBX 19 18 -2 -1
BITMAP
002000
003800
003000
003000
002000
8F8000
7E1860
0F0F80
078400
03CC00
01D800
00F000
006000
006000
006000
006000
00F000
07FF00
ENDCHAR
STARTCHAR Thorn
ENCODING 222
SWIDTH 745 0
DWIDTH 13 0
BBX 16 13 -2 -1
BITMAP
E020
1FC0
0600
07F8
07FE
0607
0607
061E
07F8
0700
0700
1FC0
7C30
ENDCHAR
STARTCHAR germandbls
ENCODING 223
SWIDTH 986 0
DWIDTH 18 0
BBX 19 24 -1 -7
BITMAP
01C000
03F000
061800
0E1C00
0C0C00
0C0C00
0C0C00
0C1C00
7E1800
7E3800
0E7000
0E7000
0E7800
0E3E00
061F80
0627E0
0621E0
0730E0
073FC0
472F80
E74000
E60000
6E0000
3C0000
ENDCHAR
STARTCHAR agrave
ENCODING 224
SWIDTH 572 0
DWIDTH 10 0
BBX 12 16 0 0
BITMAP
0200
0700
0700
0300
0200
0000
1F00
7380
7180
7180
0180
7F80
E180
E380
7F80
13F0
ENDCHAR
STARTCHAR aacute
ENCODING 225
SWIDTH 572 0
DWIDTH 10 0
BBX 12 16 0 0
BITMAP
0200
0300
0700
0600
0200
0000
1F00
7380
7180
7180
0180
7F80
E180
E380
7F80
13F0
ENDCHAR
STARTCHAR acircumflex
ENCODING 226
SWIDTH 572 0
DWIDTH 10 0
BBX 12 16 0 0
BITMAP
0400
0600
0F00
1B80
1080
0000
1F00
7380
7180
7180
0180
7F80
E180
E380
7F80
13F0
ENDCHAR
STARTCHAR atilde
ENCODING 227
SWIDTH 572 0
DWIDTH 10 0
BBX 12 15 0 0
BITMAP
0C80
1F80
1780
0000
0000
1F00
7380
7180
7180
0180
7F80
E180
E380
7F80
13F0
ENDCHAR
STARTCHAR adieresis
ENCODING 228
SWIDTH 572 0
DWIDTH 10 0
BBX 12 14 0 0
BITMAP
1B00
1B00
0000
0000
1F00
7380
7180
7180
0180
7F80
E180
E380
7F80
13F0
ENDCHAR
STARTCHAR aring
ENCODING 229
SWIDTH 572 0
DWIDTH 10 0
BBX 12 13 0 0
BITMAP
0F00
0900
0F00
1F00
7380
7180
7180
0180
7F80
E180
E380
7F80
13F0
ENDCHAR
STARTCHAR ae
ENCODING 230
SWIDTH 1022 0
DWIDTH 18 0
BBX 18 10 0 0
BITMAP
1E0000
773F00
63F380
E3E1C0
03FFC0
7FFFC0
E3E040
E3F880
7FBF00
1BE000
ENDCHAR
STARTCHAR ccedilla
ENCODING 231
SWIDTH 589 0
DWIDTH 11 0
BBX 9 15 1 -6
BITMAP
1E00
7F80
E380
E380
E100
E080
E080
F080
7F80
3E00
1800
1C00
2600
1600
3C00
ENDCHAR
STARTCHAR egrave
ENCODING 232
SWIDTH 593 0
DWIDTH 11 0
BBX 10 15 1 -1
BITMAP
0400
0C00
0E00
0600
0400
0000
3E00
7700
E380
C180
FFC0
C000
E080
7F00
3E00
ENDCHAR
STARTCHAR eacute
ENCODING 233
SWIDTH 593 0
DWIDTH 11 0
BBX 10 15 1 -1
BITMAP
0800
0600
0E00
0C00
0400
0000
3E00
7700
E380
C180
FFC0
C000
E080
7F00
3E00
ENDCHAR
STARTCHAR ecircumflex
ENCODING 234
SWIDTH 593 0
DWIDTH 11 0
BBX 10 15 1 -1
BITMAP
0800
0C00
1E00
3700
2100
0000
3E00
7700
E380
C180
FFC0
C000
E080
7F00
3E00
ENDCHAR
STARTCHAR edieresis
ENCODING 235
SWIDTH 593 0
DWIDTH 11 0
BBX 10 13 1 -1
BITMAP
3300
3B00
0000
0000
3E00
7700
E380
C180
FFC0
C000
E080
7F00
3E00
ENDCHAR
STARTCHAR igrave
ENCODING 236
SWIDTH 393 0
DWIDTH 7 0
BBX 9 16 -1 0
BITMAP
0800
1C00
0C00
0E00
0800
0000
C000
3E00
0E00
0E00
0E00
0E00
0C00
0C00
1E00
7F80
ENDCHAR
STARTCHAR iacute
ENCODING 237
SWIDTH 393 0
DWIDTH 7 0
BBX 9 16 -1 0
BITMAP
0400
0700
0600
0C00
0400
0000
C000
3E00
0E00
0E00
0E00
0E00
0C00
0C00
1E00
7F80
ENDCHAR
STARTCHAR icircumflex
ENCODING 238
SWIDTH 393 0
DWIDTH 7 0
BBX 9 16 -1 0
BITMAP
0400
0C00
1E00
3B00
2100
0000
C000
3E00
0E00
0E00
0E00
0E00
0C00
0C00
1E00
7F80
ENDCHAR
STARTCHAR idieresis
ENCODING 239
SWIDTH 393 0
DWIDTH 7 0
BBX 9 13 -1 0
BITMAP
1B00
1B00
0000
C000
3E00
0E00
0E00
0E00
0E00
0C00
0C00
1E00
7F80
ENDCHAR
STARTCHAR eth
ENCODING 240
SWIDTH 672 0
DWIDTH 12 0
BBX 12 17 0 -2
BITMAP
6000
1860
07E0
0380
0F80
1DC0
08E0
00E0
1FF0
79F0
E070
E070
E070
E070
70E0
3FC0
0F00
ENDCHAR
STARTCHAR ntilde
ENCODING 241
SWIDTH 643 0
DWIDTH 12 0
BBX 15 13 -2 1
BITMAP
0320
03E0
02E0
0000
0640
FFF0
0F78
0E18
0E18
0618
0618
3F18
01FE
ENDCHAR
STARTCHAR ograve
ENCODING 242
SWIDTH 705 0
DWIDTH 13 0
BBX 13 14 0 0
BITMAP
0200
0700
0300
0380
0200
0700
3FE0
7070
E070
E038
E030
7070
78E0
1FC0
ENDCHAR
STARTCHAR oacute
ENCODING 243
SWIDTH 705 0
DWIDTH 13 0
BBX 13 15 0 0
BITMAP
0200
0380
0300
0700
0200
0000
0700
3FE0
7070
E070
E038
E030
7070
78E0
1FC0
ENDCHAR
STARTCHAR ocircumflex
ENCODING 244
SWIDTH 705 0
DWIDTH 13 0
BBX 13 15 0 0
BITMAP
0200
0700
0780
0DC0
1880
0000
0700
3FE0
7070
E070
E038
E030
7070
78E0
1FC0
ENDCHAR
STARTCHAR otilde
ENCODING 245
SWIDTH 705 0
DWIDTH 13 0
BBX 13 13 0 0
BITMAP
0640
0F80
0B80
0000
0700
3FE0
7070
E070
E038
E030
7070
78E0
1FC0
ENDCHAR
STARTCHAR odieresis
ENCODING 246
SWIDTH 705 0
DWIDTH 13 0
BBX 13 12 0 0
BITMAP
0D80
0D80
0000
0700
3FE0
7070
E070
E038
E030
7070
78E0
1FC0
ENDCHAR
STARTCHAR divide
ENCODING 247
SWIDTH 504 0
DWIDTH 9 0
BBX 9 10 0 0
BITMAP
1C00
1E00
0C00
8000
FF80
FF80
0000
1C00
1E00
1C00
ENDCHAR
STARTCHAR oslash
ENCODING 248
SWIDTH 705 0
DWIDTH 13 0
BBX 13 13 0 -2
BITMAP
0040
00E0
07E0
3FE0
71F0
E3F0
E738
E630
7E70
7CE0
1FC0
1800
3000
ENDCHAR
STARTCHAR ugrave
ENCODING 249
SWIDTH 614 0
DWIDTH 11 0
BBX 15 16 -2 -1
BITMAP
0100
0700
0380
0180
0100
0000
FDF8
1C78
1C38
1C30
1C30
1C30
1C30
0EF0
0FFE
0030
ENDCHAR
STARTCHAR uacute
ENCODING 250
SWIDTH 614 0
DWIDTH 11 0
BBX 15 16 -2 -1
BITMAP
0100
01C0
0180
0180
0300
0000
FDF8
1C78
1C38
1C30
1C30
1C30
1C30
0EF0
0FFE
0030
ENDCHAR
STARTCHAR ucircumflex
ENCODING 251
SWIDTH 614 0
DWIDTH 11 0
BBX 15 16 -2 -1
BITMAP
0100
0180
03C0
06C0
0420
0000
FDF8
1C78
1C38
1C30
1C30
1C30
1C30
0EF0
0FFE
0030
ENDCHAR
STARTCHAR udieresis
ENCODING 252
SWIDTH 614 0
DWIDTH 11 0
BBX 15 14 -2 -1
BITMAP
06C0
06C0
0000
0000
FDF8
1C78
1C38
1C30
1C30
1C30
1C30
0EF0
0FFE
0030
ENDCHAR
STARTCHAR yacute
ENCODING 253
SWIDTH 655 0
DWIDTH 12 0
BBX 12 23 -1 -8
BITMAP
0200
0380
0300
0300
0600
8000
73C0
3CF0
3C70
3870
3870
3870
3C70
1FF0
0F70
0070
0070
0070
3070
3860
30E0
39C0
0F80
ENDCHAR
STARTCHAR thorn
ENCODING 254
SWIDTH 734 0
DWIDTH 13 0
BBX 15 19 -2 -7
BITMAP
FF00
0F00
0700
0700
0700
0700
07F0
07FC
070E
0706
0706
070E
071E
07FC
0700
0700
0700
0700
7FE0
ENDCHAR
STARTCHAR ydieresis
ENCODING 255
SWIDTH 655 0
DWIDTH 12 0
BBX 12 21 -1 -8
BITMAP
0D80
0D80
0000
8000
73C0
3CF0
3C70
3870
3870
3870
3C70
1FF0
0F70
0070
0070
0070
3070
3860
30E0
39C0
0F80
ENDCHAR
STARTCHAR dotlessi
ENCODING 305
SWIDTH 393 0
DWIDTH 7 0
BBX 9 9 -1 0
BITMAP
FE00
0E00
0E00
0E00
0E00
0C00
0C00
1E00
7F80
ENDCHAR
STARTCHAR Lslash
ENCODING 321
SWIDTH 713 0
DWIDTH 13 0
BBX 15 14 -2 0
BITMAP
FFF0
0700
0700
0700
07C0
07E0
0FC2
3F02
1F02
0706
0706
070E
0FFE
7FC0
ENDCHAR
STARTCHAR lslash
ENCODING 322
SWIDTH 365 0
DWIDTH 7 0
BBX 10 16 -2 -1
BITMAP
FE00
0E00
0E00
0E00
0E80
0F80
0FC0
3E00
7E00
2E00
0E00
0E00
0E00
0E00
0E00
7F80
ENDCHAR
STARTCHAR OE
ENCODING 338
SWIDTH 1195 0
DWIDTH 22 0
BBX 21 13 0 0
BITMAP
0003F8
03FFF8
003C18
1F9C58
79DC88
70FC88
E07C80
E07F88
E07F88
60FC90
71DC90
1F9C10
03FFF0
ENDCHAR
STARTCHAR oe
ENCODING 339
SWIDTH 1087 0
DWIDTH 20 0
BBX 19 9 0 -1
BITMAP
3F8F80
71FFC0
E0F8E0
E070E0
E07FE0
E0FFC0
71F020
1FBFC0
001F80
ENDCHAR
STARTCHAR Scaron
ENCODING 352
SWIDTH 661 0
DWIDTH 12 0
BBX 12 20 0 -2
BITMAP
1080
1D80
0F00
0600
0200
0010
1F20
7FE0
E0E0
E020
F820
7F80
3FE0
07E0
40F0
60F0
70E0
5FC0
4200
8000
ENDCHAR
STARTCHAR scaron
ENCODING 353
SWIDTH 533 0
DWIDTH 10 0
BBX 10 18 0 -1
BITMAP
2100
3B00
1E00
0C00
0400
0000
0880
7E80
6380
E180
7880
7F00
9F80
47C0
61C0
7F80
9F00
8000
ENDCHAR
STARTCHAR Ydieresis
ENCODING 376
SWIDTH 848 0
DWIDTH 15 0
BBX 19 16 -2 -1
BITMAP
00D800
01D800
000000
8F8000
7E1860
0F0F80
078400
03CC00
01D800
00F000
006000
006000
006000
006000
00F000
07FF00
ENDCHAR
STARTCHAR Zcaron
ENCODING 381
SWIDTH 685 0
DWIDTH 12 0
BBX 13 17 0 0
BITMAP
1880
0DC0
0780
0700
0200
0000
FFF8
7FF0
61E0
43C0
4780
4790
0F10
1E10
3C30
7FF0
FFF0
ENDCHAR
STARTCHAR zcaron
ENCODING 382
SWIDTH 549 0
DWIDTH 10 0
BBX 11 16 0 0
BITMAP
1180
3B00
1E00
0E00
0400
0000
0020
FFC0
4380
4700
4F00
4E40
1C80
3C80
7EC0
FFC0
ENDCHAR
STARTCHAR circumflex
ENCODING 710
SWIDTH 714 0
DWIDTH 13 0
BBX 6 5 4 12
BITMAP
10
30
78
EC
84
ENDCHAR
STARTCHAR caron
ENCODING 711
SWIDTH 714 0
DWIDTH 13 0
BBX 6 5 4 12
BITMAP
84
EC
78
30
10
ENDCHAR
STARTCHAR breve
ENCODING 728
SWIDTH 715 0
DWIDTH 13 0
BBX 6 4 4 13
BITMAP
84
7C
78
30
ENDCHAR
STARTCHAR dotaccent
ENCODING 729
SWIDTH 708 0
DWIDTH 13 0
BBX 2 2 5 15
BITMAP
C0
C0
ENDCHAR
STARTCHAR ring
ENCODING 730
SWIDTH 704 0
DWIDTH 13 0
BBX 4 4 5 13
BITMAP
60
F0
90
60
ENDCHAR
STARTCHAR ogonek
ENCODING 731
SWIDTH 988 0
DWIDTH 18 0
BBX 6 4 6 -2
BITMAP
C0
C0
FC
F8
ENDCHAR
STARTCHAR tilde
ENCODING 732
SWIDTH 707 0
DWIDTH 13 0
BBX 6 3 4 13
BITMAP
64
FC
BC
ENDCHAR
STARTCHAR hungarumlaut
ENCODING 733
SWIDTH 671 0
DWIDTH 12 0
BBX 6 5 4 13
BITMAP
90
FC
D8
F8
90
ENDCHAR
STARTCHAR endash
ENCODING 8211
SWIDTH 576 0
DWIDTH 10 0
BBX 8 3 1 5
BITMAP
FF
FF
1F
ENDCHAR
STARTCHAR emdash
ENCODING 8212
SWIDTH 993 0
DWIDTH 18 0
BBX 16 3 1 5
BITMAP
FFFF
FFFF
FFFF
ENDCHAR
STARTCHAR quoteleft
ENCODING 8216
SWIDTH 261 0
DWIDTH 5 0
BBX 5 5 0 8
BITMAP
38
30
70
F0
60
ENDCHAR
STARTCHAR quoteright
ENCODING 8217
SWIDTH 301 0
DWIDTH 5 0
BBX 4 5 1 8
BITMAP
40
70
E0
E0
C0
ENDCHAR
STARTCHAR quotesinglbase
ENCODING 8218
SWIDTH 332 0
DWIDTH 6 0
BBX 4 5 1 -1
BITMAP
40
70
E0
E0
C0
ENDCHAR
STARTCHAR quotedblleft
ENCODING 8220
SWIDTH 477 0
DWIDTH 9 0
BBX 8 5 0 8
BITMAP
3B
37
77
FF
66
ENDCHAR
STARTCHAR quotedblright
ENCODING 8221
SWIDTH 477 0
DWIDTH 9 0
BBX 8 5 0 8
BITMAP
26
7F
77
6E
EE
ENDCHAR
STARTCHAR quotedblbase
ENCODING 8222
SWIDTH 477 0
DWIDTH 9 0
BBX 8 5 0 -1
BITMAP
26
7F
77
6E
EE
ENDCHAR
STARTCHAR dagger
ENCODING 8224
SWIDTH 487 0
DWIDTH 9 0
BBX 8 20 0 -5
BITMAP
1C
1C
1C
1C
FC
FF
FF
1C
1C
1C
1C
1C
1C
1C
1C
1C
1C
1C
1C
1C
ENDCHAR
STARTCHAR daggerdbl
ENCODING 8225
SWIDTH 497 0
DWIDTH 9 0
BBX 8 20 0 -5
BITMAP
1C
1C
1C
1C
FC
FF
FF
1C
1C
FF
FF
1C
1C
1C
1C
1C
1C
1C
1C
1C
ENDCHAR
STARTCHAR bullet
ENCODING 8226
SWIDTH 275 0
DWIDTH 5 0
BBX 5 5 0 4
BITMAP
70
F8
F8
F8
20
ENDCHAR
STARTCHAR ellipsis
ENCODING 8230
SWIDTH 787 0
DWIDTH 14 0
BBX 14 4 0 -2
BITMAP
2108
F7BC
F7BC
2108
ENDCHAR
STARTCHAR perthousand
ENCODING 8240
SWIDTH 888 0
DWIDTH 16 0
BBX 17 15 0 -1
BITMAP
00C000
79C000
D98000
CB8000
FB8000
330000
070000
060000
0E0000
0CE600
0DFF00
193980
19B980
39EF00
100000
ENDCHAR
STARTCHAR guilsinglleft
ENCODING 8249
SWIDTH 234 0
DWIDTH 4 0
BBX 4 10 0 -1
BITMAP
10
30
30
60
E0
E0
60
30
10
10
ENDCHAR
STARTCHAR guilsinglright
ENCODING 8250
SWIDTH 223 0
DWIDTH 4 0
BBX 4 10 0 -1
BITMAP
80
C0
60
60
30
70
60
C0
C0
80
ENDCHAR
STARTCHAR fraction
ENCODING 8260
SWIDTH 600 0
DWIDTH 11 0
BBX 12 17 -1 -2
BITMAP
0060
0070
00F0
00E0
01E0
03C0
0380
0780
0700
0F00
0E00
1C00
3C00
3800
7000
F000
2000
ENDCHAR
STARTCHAR Euro
ENCODING 8364
SWIDTH 590 0
DWIDTH 11 0
BBX 12 11 -1 1
BITMAP
0380
0FE0
1C60
1870
7F20
FF00
3800
FF90
1C20
0FE0
07C0
ENDCHAR
STARTCHAR trademark
ENCODING 8482
SWIDTH 624 0
DWIDTH 11 0
BBX 12 8 0 5
BITMAP
2000
4000
F000
5F40
45A0
5520
7DF0
2200
ENDCHAR
STARTCHAR minus
ENCODING 8722
SWIDTH 549 0
DWIDTH 10 0
BBX 10 3 0 5
BITMAP
FE00
FFC0
FFC0
ENDCHAR
STARTCHAR fi
ENCODING 64257
SWIDTH 757 0
DWIDTH 14 0
BBX 16 24 -1 -7
BITMAP
03E0
0670
0C38
0C38
0C38
0C38
0C00
0C00
7FF8
7FF8
0E38
0E38
0E38
0E18
0E18
0638
06FE
0701
0700
4700
E700
E600
6E00
3C00
ENDCHAR
STARTCHAR fl
ENCODING 64258
SWIDTH 776 0
DWIDTH 14 0
BBX 16 24 -1 -7
BITMAP
03E0
0670
0C38
0C38
0C38
0C1C
0C1C
0C1C
7F9C
7F98
0E18
0E18
0E18
0E18
0E18
0618
0618
077F
0780
4700
E700
E600
6E00
3C00
ENDCHAR
STARTCHAR .notdef
ENCODING -1
SWIDTH 320 0
DWIDTH 6 0
BBX 1 1 0 0
BITMAP
00
ENDCHAR
ENDFONT
